<?xml version="1.0" encoding="UTF-8"?>
<svg xmlns="http://www.w3.org/2000/svg" viewBox="0 0 860 580" width="860" height="580">
  <defs>
    <marker id="a-7c3aed" viewBox="0 0 10 10" refX="9" refY="5" markerWidth="7" markerHeight="7" orient="auto"><path d="M0 0L10 5L0 10z" fill="#7c3aed"/></marker>
<marker id="a-d4a017" viewBox="0 0 10 10" refX="9" refY="5" markerWidth="7" markerHeight="7" orient="auto"><path d="M0 0L10 5L0 10z" fill="#d4a017"/></marker>
<marker id="a-4a90d9" viewBox="0 0 10 10" refX="9" refY="5" markerWidth="7" markerHeight="7" orient="auto"><path d="M0 0L10 5L0 10z" fill="#4a90d9"/></marker>
<marker id="a-16a34a" viewBox="0 0 10 10" refX="9" refY="5" markerWidth="7" markerHeight="7" orient="auto"><path d="M0 0L10 5L0 10z" fill="#16a34a"/></marker>
<marker id="a-ea580c" viewBox="0 0 10 10" refX="9" refY="5" markerWidth="7" markerHeight="7" orient="auto"><path d="M0 0L10 5L0 10z" fill="#ea580c"/></marker>
    <style>text { font-family: Inter, -apple-system, Segoe UI, sans-serif; }</style>
  </defs>
  <rect x="0" y="0" width="860" height="580" rx="14" fill="#f8f9fb" stroke="#dee2e6" stroke-width="2" opacity="1"/><text x="430.0" y="30" font-size="22" fill="#1a1a2e" font-weight="bold" text-anchor="middle" dy="0.35em">Task Miner  —  Adaptive Difficulty Mining</text><text x="430.0" y="54" font-size="11" fill="#888" font-weight="normal" text-anchor="middle" dy="0.35em" font-style="italic">Symbiotic loop between task mining and world simulation</text><rect x="312.0" y="82" width="240" height="60" rx="12" fill="#00000008" stroke="none" stroke-width="1.5" opacity="1"/><rect x="310.0" y="80" width="240" height="60" rx="10" fill="#7c3aed" stroke="#6d28d9" stroke-width="1.5" opacity="1"/><text x="430.0" y="100" font-size="15" fill="white" font-weight="bold" text-anchor="middle" dy="0.35em">Task Miner</text><text x="430.0" y="122" font-size="9.5" fill="#e0d4ff" font-weight="normal" text-anchor="middle" dy="0.35em">Propose task + rubric + target k/n</text><rect x="332.0" y="192" width="200" height="70" rx="12" fill="#00000008" stroke="none" stroke-width="1.5" opacity="1"/><rect x="330.0" y="190" width="200" height="70" rx="10" fill="#fffbeb" stroke="#d4a017" stroke-width="2" opacity="1"/><text x="430.0" y="212" font-size="13" fill="#7a6200" font-weight="bold" text-anchor="middle" dy="0.35em">World (world.db)</text><text x="430.0" y="236" font-size="9.5" fill="#a08000" font-weight="normal" text-anchor="middle" dy="0.35em">customers · orders · tickets</text><text x="430.0" y="250" font-size="9.5" fill="#a08000" font-weight="normal" text-anchor="middle" dy="0.35em">products · knowledge_base</text><rect x="122.0" y="202.0" width="150" height="50" rx="12" fill="#00000008" stroke="none" stroke-width="1.5" opacity="1"/><rect x="120.0" y="200.0" width="150" height="50" rx="10" fill="#16a34a" stroke="#15803d" stroke-width="1.5" opacity="1"/><text x="195.0" y="216.0" font-size="13" fill="white" font-weight="bold" text-anchor="middle" dy="0.35em">Simulator</text><text x="195.0" y="236.0" font-size="9.5" fill="#dcfce7" font-weight="normal" text-anchor="middle" dy="0.35em">Grow the world</text><rect x="322.0" y="312" width="220" height="60" rx="12" fill="#00000008" stroke="none" stroke-width="1.5" opacity="1"/><rect x="320.0" y="310" width="220" height="60" rx="10" fill="#4a90d9" stroke="#3b82d6" stroke-width="1.5" opacity="1"/><text x="430.0" y="330" font-size="15" fill="white" font-weight="bold" text-anchor="middle" dy="0.35em">Runner</text><text x="430.0" y="352" font-size="9.5" fill="#dbeafe" font-weight="normal" text-anchor="middle" dy="0.35em">Run task x n  ·  LLM Judge scores</text><rect x="332.0" y="422" width="200" height="50" rx="12" fill="#00000008" stroke="none" stroke-width="1.5" opacity="1"/><rect x="330.0" y="420" width="200" height="50" rx="10" fill="#ea580c" stroke="#dc2626" stroke-width="1.5" opacity="1"/><text x="430.0" y="436" font-size="13" fill="white" font-weight="bold" text-anchor="middle" dy="0.35em">Difficulty Check</text><text x="430.0" y="456" font-size="9.5" fill="#fed7aa" font-weight="normal" text-anchor="middle" dy="0.35em">pass rate vs target k/n</text><line x1="430.0" y1="140" x2="430.0" y2="190" stroke="#7c3aed" stroke-width="2" marker-end="url(#a-7c3aed)"/><text x="440.0" y="165.0" font-size="9" fill="#7c3aed" font-weight="normal" text-anchor="start" dy="0.35em" font-style="italic">task</text><line x1="430.0" y1="260" x2="430.0" y2="310" stroke="#d4a017" stroke-width="2" marker-end="url(#a-d4a017)"/><text x="440.0" y="285.0" font-size="9" fill="#d4a017" font-weight="normal" text-anchor="start" dy="0.35em" font-style="italic">snapshot</text><line x1="430.0" y1="370" x2="430.0" y2="420" stroke="#4a90d9" stroke-width="2" marker-end="url(#a-4a90d9)"/><text x="440.0" y="395.0" font-size="9" fill="#4a90d9" font-weight="normal" text-anchor="start" dy="0.35em" font-style="italic">results</text><path d="M 330.0 445.0 C 230.0 445.0, 210.0 110.0, 310.0 110.0" stroke="#7c3aed" stroke-width="2" fill="none" marker-end="url(#a-7c3aed)"/><text x="242.0" y="290.0" font-size="10" fill="#7c3aed" font-weight="600" text-anchor="middle" dy="0.35em">modify</text><text x="242.0" y="304.0" font-size="10" fill="#7c3aed" font-weight="600" text-anchor="middle" dy="0.35em">task</text><path d="M 530.0 445.0 L 724 445.0 Q 740 445.0 740 429.0 L 740 241.0 Q 740 225.0 724 225.0 L 270.0 225.0" stroke="#16a34a" stroke-width="2" fill="none" marker-end="url(#a-16a34a)"/><text x="752" y="328.0" font-size="10" fill="#16a34a" font-weight="600" text-anchor="start" dy="0.35em">grow</text><text x="752" y="342.0" font-size="10" fill="#16a34a" font-weight="600" text-anchor="start" dy="0.35em">world</text><line x1="270.0" y1="219.0" x2="330.0" y2="219.0" stroke="#16a34a" stroke-width="2" marker-end="url(#a-16a34a)"/><line x1="330.0" y1="231.0" x2="270.0" y2="231.0" stroke="#16a34a" stroke-width="2" marker-end="url(#a-16a34a)"/><rect x="370.0" y="484" width="120" height="28" rx="6" fill="#dcfce7" stroke="#16a34a" stroke-width="1.2" opacity="1"/><text x="430.0" y="498.0" font-size="10" fill="#166534" font-weight="600" text-anchor="middle" dy="0.35em">on target &#x2192; keep</text><line x1="430.0" y1="470" x2="430.0" y2="484" stroke="#16a34a" stroke-width="1.5" marker-end="url(#a-16a34a)"/><rect x="556.0" y="322" width="130" height="30" rx="6" fill="#e0e7ff" stroke="#4a90d9" stroke-width="1" opacity="1"/><text x="621.0" y="337" font-size="9.5" fill="#4a50a9" font-weight="600" text-anchor="middle" dy="0.35em">Trainee Model</text><text x="430.0" y="562" font-size="10.5" fill="#999" font-weight="normal" text-anchor="middle" dy="0.35em" font-style="italic">Richer worlds enable harder tasks  ·  Task gaps drive world growth</text>
</svg>